<svg width="48" height="48" viewBox="0 0 48 48" fill="none" xmlns="http://www.w3.org/2000/svg">
<circle cx="24" cy="24" r="23" stroke="#BEBEB6" stroke-opacity="0.2" stroke-width="2"/>
<path d="M24 23.4062C24.6646 23.4062 25.2318 23.1714 25.7016 22.7016C26.1714 22.2318 26.4062 21.6646 26.4062 21C26.4062 20.3354 26.1714 19.7682 25.7016 19.2984C25.2318 18.8286 24.6646 18.5938 24 18.5938C23.3354 18.5938 22.7682 18.8286 22.2984 19.2984C21.8286 19.7682 21.5938 20.3354 21.5938 21C21.5938 21.6646 21.8286 22.2318 22.2984 22.7016C22.7682 23.1714 23.3354 23.4062 24 23.4062ZM24 34.7844C27.0479 32.0115 29.2995 29.4964 30.7547 27.2391C32.2099 24.9818 32.9375 22.9937 32.9375 21.275C32.9375 18.5708 32.0724 16.3594 30.3422 14.6406C28.612 12.9219 26.4979 12.0625 24 12.0625C21.5021 12.0625 19.388 12.9219 17.6578 14.6406C15.9276 16.3594 15.0625 18.5708 15.0625 21.275C15.0625 22.9937 15.8073 24.9818 17.2969 27.2391C18.7865 29.4964 21.0208 32.0115 24 34.7844ZM24 37.5C20.3104 34.3604 17.5547 31.4443 15.7328 28.7516C13.9109 26.0589 13 23.5667 13 21.275C13 17.8375 14.1057 15.099 16.3172 13.0594C18.5286 11.0198 21.0896 10 24 10C26.9104 10 29.4714 11.0198 31.6828 13.0594C33.8943 15.099 35 17.8375 35 21.275C35 23.5667 34.0891 26.0589 32.2672 28.7516C30.4453 31.4443 27.6896 34.3604 24 37.5Z" fill="#AAADB3"/>
</svg>
