<svg width="49" height="48" viewBox="0 0 49 48" fill="none" xmlns="http://www.w3.org/2000/svg">
<g clip-path="url(#clip0_2987_33210)">
<rect x="0.125" width="48" height="48" rx="15" fill="#F6F6F5"/>
<path d="M-3.81367 24.437L21.7286 41.7641C24.1003 42.5721 28.5852 40.3829 35.8523 35.5483C42.8429 30.8976 43.994 28.9366 43.994 26.5021C43.994 23.7782 43.6599 21.4203 40.8318 18.7269C38.5694 16.5722 33.3772 13.0303 30.9072 11.4503C30.9072 11.4503 25.3468 5.22521 22.4317 2.95451C19.5167 0.683812 7.90261 -5.05381 4.02622 -6.35273C0.149835 -7.65164 -10.0533 -1.73403 -10.0533 -1.73403C-10.3376 3.96696 -10.9063 15.4228 -10.9062 15.6383C-10.9062 15.8538 -6.17786 21.5939 -3.81367 24.437Z" fill="#894E4C"/>
<path d="M-4.07368 3.0165C-1.30695 4.67776 4.46683 8.18281 5.42816 8.91292L5.46577 8.94148C6.65888 9.84748 8.03882 10.8953 9.23335 13.2302C10.353 15.4187 11.2658 18.103 11.9716 20.1787C12.1916 20.8256 12.3915 21.4134 12.5712 21.9087L-5.6313 10.1594L-4.07368 3.0165Z" fill="url(#paint0_linear_2987_33210)"/>
<path d="M30.9072 11.4503C30.9072 11.4503 26.1065 5.58419 22.4548 3.0165C21.4876 3.72184 19.1843 5.24951 17.8032 6.08512C17.3942 6.33261 17.0071 6.5604 16.666 6.75343C16.5067 6.84353 16.3574 6.92607 16.2206 6.9995L15.92 7.16102C14.3492 8.00564 11.3583 9.61389 9.23335 10.4264C10.4127 12.0731 11.6588 14.3428 12.5712 16.7461C12.9631 17.7783 13.3946 18.8656 13.7914 19.8653C14.3397 21.2468 14.8217 22.4612 15.0412 23.1325C16.7991 23.1325 23.2446 20.6421 26.3677 18.5485C30.4177 15.8337 33.0069 13.3394 31.6143 12.0734L31.3146 11.7127C31.1719 11.6203 31.0359 11.5326 30.9072 11.4503Z" fill="url(#paint1_linear_2987_33210)"/>
<path fill-rule="evenodd" clip-rule="evenodd" d="M11.8836 35.088L-3.81367 24.4394C-6.17786 21.5963 -10.9062 15.8562 -10.9062 15.6408C-10.9063 15.4253 -10.3376 3.96943 -10.0533 -1.73157C-10.0533 -1.73157 0.790815 -8.11676 4.6672 -6.81784C8.54359 -5.51893 19.739 0.936552 22.654 3.20725C21.392 4.09536 19.2518 5.4099 17.8707 6.24551C17.4617 6.493 17.0747 6.72079 16.7335 6.91382C16.5742 7.00393 16.425 7.08646 16.2881 7.15989L15.9875 7.32141C14.4167 8.16603 11.3583 9.61636 9.23335 10.4288C10.4127 12.0755 11.6588 14.3453 12.5712 16.7486C12.9631 17.7808 13.3946 18.868 13.7914 19.8678C14.3397 21.2493 14.8217 22.4637 15.0412 23.135C16.7991 23.135 23.2446 20.6445 26.3677 18.551C30.4177 15.8362 33.0069 13.3419 31.6143 12.0759L31.3146 11.7152C33.9102 13.398 38.6872 16.6869 40.8318 18.7294C43.6599 21.4227 43.994 23.7807 43.994 26.5046C43.994 28.939 42.8429 30.9001 35.8523 35.5508C28.5852 40.3854 24.1003 42.5746 21.7286 41.7666L21.4999 41.6114C21.1827 39.3839 20.4318 34.6059 15.9129 32.0684C13.9847 30.9856 12.5836 31.0609 12.1032 32.3332C11.8716 32.9468 11.8725 33.9198 11.8836 35.088ZM-4.07368 3.01896C-1.30695 4.68022 4.46683 8.18527 5.42816 8.91539L5.46577 8.94395C6.65888 9.84994 7.73225 10.5838 8.92679 12.9186C10.0465 15.1072 11.2658 18.1055 11.9716 20.1812C12.1916 20.8281 12.3915 21.4159 12.5712 21.9111L-5.6313 10.1618L-4.07368 3.01896Z" fill="#CE967D"/>
<path fill-rule="evenodd" clip-rule="evenodd" d="M11.8836 35.088L-3.81367 24.4394C-6.17786 21.5963 -10.9062 15.8562 -10.9062 15.6408C-10.9063 15.4253 -10.3376 3.96943 -10.0533 -1.73157C-10.0533 -1.73157 0.790815 -8.11676 4.6672 -6.81784C8.54359 -5.51893 19.739 0.936552 22.654 3.20725C21.392 4.09536 19.2518 5.4099 17.8707 6.24551C17.4617 6.493 17.0747 6.72079 16.7335 6.91382C16.5742 7.00393 16.425 7.08646 16.2881 7.15989L15.9875 7.32141C14.4167 8.16603 11.3583 9.61636 9.23335 10.4288C10.4127 12.0755 11.6588 14.3453 12.5712 16.7486C12.9631 17.7808 13.3946 18.868 13.7914 19.8678C14.3397 21.2493 14.8217 22.4637 15.0412 23.135C16.7991 23.135 23.2446 20.6445 26.3677 18.551C30.4177 15.8362 33.0069 13.3419 31.6143 12.0759L31.3146 11.7152C33.9102 13.398 38.6872 16.6869 40.8318 18.7294C43.6599 21.4227 43.994 23.7807 43.994 26.5046C43.994 28.939 42.8429 30.9001 35.8523 35.5508C28.5852 40.3854 24.1003 42.5746 21.7286 41.7666L21.4999 41.6114C21.1827 39.3839 20.4318 34.6059 15.9129 32.0684C13.9847 30.9856 12.5836 31.0609 12.1032 32.3332C11.8716 32.9468 11.8725 33.9198 11.8836 35.088ZM-4.07368 3.01896C-1.30695 4.68022 4.46683 8.18527 5.42816 8.91539L5.46577 8.94395C6.65888 9.84994 7.73225 10.5838 8.92679 12.9186C10.0465 15.1072 11.2658 18.1055 11.9716 20.1812C12.1916 20.8281 12.3915 21.4159 12.5712 21.9111L-5.6313 10.1618L-4.07368 3.01896Z" fill="url(#paint2_linear_2987_33210)" fill-opacity="0.75"/>
<path d="M-2.26953 18.6499C6.60151 24.2353 18.6048 32.771 24.7535 36.2913C24.7535 34.5217 25.1306 32.8392 27.1032 31.882C29.0758 30.9247 30.5937 29.7327 31.0556 29.4917L4.3017 12.1719L-2.26953 18.6499Z" fill="url(#paint3_linear_2987_33210)" fill-opacity="0.2"/>
<path d="M26.4529 31.5395C28.1931 30.5899 30.4665 29.432 34.8724 26.6351C39.1533 23.6425 40.3336 22.5159 41.1561 21.8113C41.9785 21.1068 42.6144 21.5422 42.793 21.9694C43.0653 22.6206 43.4322 23.7688 42.8835 25.02C42.4588 25.9887 39.3429 28.4364 36.5981 30.3677C33.8533 32.2991 29.9722 34.6769 28.1976 35.3824C26.423 36.088 25.6752 35.5193 25.2777 34.9598C24.8802 34.4003 24.7128 32.489 26.4529 31.5395Z" fill="white"/>
<path d="M19.0527 35.5855C20.7648 38.1945 21.0228 41.051 19.6289 41.9657C18.235 42.8804 15.7171 41.5069 14.005 38.898C12.2929 36.289 12.035 33.4325 13.4288 32.5178C14.8227 31.6031 17.3406 32.9765 19.0527 35.5855Z" fill="#424241"/>
<path fill-rule="evenodd" clip-rule="evenodd" d="M14.8567 31.5703L13.4288 32.5178C12.035 33.4325 12.2929 36.289 14.005 38.898C15.7171 41.5069 18.235 42.8804 19.6289 41.9657L21.4016 40.954C21.0176 38.5448 20.0265 34.3781 15.9127 32.068C15.5401 31.8588 15.1871 31.6928 14.8567 31.5703Z" fill="#424241"/>
<path fill-rule="evenodd" clip-rule="evenodd" d="M19.6289 41.9657C21.0228 41.051 20.7648 38.1945 19.0527 35.5855C17.3406 32.9765 14.8227 31.6031 13.4288 32.5178L14.8567 31.5703C15.1871 31.6928 15.5401 31.8588 15.9127 32.068C20.0265 34.3781 21.0176 38.5448 21.4016 40.954L19.6289 41.9657Z" fill="#424241"/>
<ellipse cx="16.2955" cy="37.3742" rx="2.40173" ry="4.69618" transform="rotate(-33.2742 16.2955 37.3742)" fill="#F3F4F6"/>
</g>
<defs>
<linearGradient id="paint0_linear_2987_33210" x1="12.3519" y1="29.1249" x2="9.15113" y2="1.73215" gradientUnits="userSpaceOnUse">
<stop stop-color="#20201F"/>
<stop offset="1" stop-color="#989898"/>
</linearGradient>
<linearGradient id="paint1_linear_2987_33210" x1="12.3519" y1="29.1249" x2="9.15113" y2="1.73215" gradientUnits="userSpaceOnUse">
<stop stop-color="#20201F"/>
<stop offset="1" stop-color="#989898"/>
</linearGradient>
<linearGradient id="paint2_linear_2987_33210" x1="31.3749" y1="27.5892" x2="-27.7473" y2="-5.53092" gradientUnits="userSpaceOnUse">
<stop stop-color="#FFD977"/>
<stop offset="1" stop-color="#FF8D07"/>
</linearGradient>
<linearGradient id="paint3_linear_2987_33210" x1="15.0033" y1="19.354" x2="10.2157" y2="26.6292" gradientUnits="userSpaceOnUse">
<stop stop-color="white" stop-opacity="0"/>
<stop offset="0.53125" stop-color="#FFF4D9"/>
<stop offset="1" stop-color="white" stop-opacity="0"/>
</linearGradient>
<clipPath id="clip0_2987_33210">
<rect x="0.125" width="48" height="48" rx="15" fill="white"/>
</clipPath>
</defs>
</svg>
