<svg width="49" height="48" viewBox="0 0 49 48" fill="none" xmlns="http://www.w3.org/2000/svg">
<g clip-path="url(#clip0_2987_32866)">
<rect x="0.5" width="48" height="48" rx="15" fill="#F6F6F5"/>
<path d="M6.15803 -0.93955C8.17612 -2.20086 10.7489 -2.15021 12.7158 -0.810445L41.4466 18.7598C42.64 19.5727 42.6051 21.3435 41.3807 22.1088L19.3001 35.9092C17.282 37.1705 14.7092 37.1198 12.7423 35.7801L-10.9237 19.6598C-14.5037 17.2212 -14.3991 11.9086 -10.7259 9.61289L6.15803 -0.93955Z" fill="url(#paint0_linear_2987_32866)" fill-opacity="0.75"/>
<path d="M6.15803 -0.93955C8.17612 -2.20086 10.7489 -2.15021 12.7158 -0.810445L41.4466 18.7598C42.64 19.5727 42.6051 21.3435 41.3807 22.1088L19.3001 35.9092C17.282 37.1705 14.7092 37.1198 12.7423 35.7801L-10.9237 19.6598C-14.5037 17.2212 -14.3991 11.9086 -10.7259 9.61289L6.15803 -0.93955Z" fill="url(#paint1_linear_2987_32866)" fill-opacity="0.75"/>
<path fill-rule="evenodd" clip-rule="evenodd" d="M-13.5256 15.2031C-13.6925 17.2431 -12.831 19.3581 -10.9237 20.6573L12.7423 36.7776C14.7092 38.1173 17.282 38.168 19.3001 36.9067L41.3807 23.1063C41.9377 22.7582 42.2485 22.202 42.3095 21.6226C42.324 21.4855 42.3244 21.3471 42.3109 21.2099C42.3009 21.1087 42.2832 21.0081 42.258 20.9092C42.1379 21.3816 41.8446 21.8165 41.3803 22.1067L19.2997 35.9071C17.2816 37.1684 14.7088 37.1177 12.7419 35.778L-10.9241 19.6577C-12.5206 18.5702 -13.3843 16.9112 -13.5256 15.2031Z" fill="#E3C799"/>
<path d="M42.258 20.9092C42.2832 21.0081 42.3009 21.1087 42.3109 21.2099C42.3107 20.9718 42.3101 20.6832 42.3095 20.4941L42.258 20.9092Z" fill="#E3C799"/>
<path d="M13.7166 22.358C13.1291 21.9475 13.1514 21.0706 13.7589 20.6905L18.8852 17.4833C19.9165 16.838 21.2353 16.8795 22.2241 17.5882L29.2646 22.6344C29.8439 23.0496 29.8152 23.9203 29.2099 24.2965L24.1586 27.436C23.1392 28.0695 21.8404 28.0345 20.8567 27.3471L13.7166 22.358Z" fill="#F3F4F6"/>
</g>
<defs>
<linearGradient id="paint0_linear_2987_32866" x1="29.4795" y1="25.4844" x2="-22.5205" y2="-12.0156" gradientUnits="userSpaceOnUse">
<stop stop-color="#FFD977"/>
<stop offset="1" stop-color="#FF8D07"/>
</linearGradient>
<linearGradient id="paint1_linear_2987_32866" x1="29.4795" y1="25.4844" x2="-22.5205" y2="-12.0156" gradientUnits="userSpaceOnUse">
<stop stop-color="#FFD977"/>
<stop offset="1" stop-color="#FF8D07"/>
</linearGradient>
<clipPath id="clip0_2987_32866">
<rect x="0.5" width="48" height="48" rx="15" fill="white"/>
</clipPath>
</defs>
</svg>
