<svg width="48" height="48" viewBox="0 0 48 48" fill="none" xmlns="http://www.w3.org/2000/svg">
<g clip-path="url(#clip0_2987_32842)">
<mask id="mask0_2987_32842" style="mask-type:alpha" maskUnits="userSpaceOnUse" x="0" y="0" width="49" height="48">
<rect x="0.125" width="48" height="48" rx="15" fill="#F4F4F2"/>
</mask>
<g mask="url(#mask0_2987_32842)">
<rect x="0.125" width="48" height="48" rx="15" fill="#F6F6F5"/>
<path d="M3.98749 -9.1746C5.82979 -10.3161 8.17848 -10.2703 9.97402 -9.05776L36.2021 8.65393C37.2914 9.38958 37.2596 10.9923 36.1419 11.6848L15.9847 24.1746C14.1424 25.3161 11.7937 25.2703 9.9982 24.0578L-11.6062 9.4684C-14.8743 7.26144 -14.7788 2.45339 -11.4256 0.375674L3.98749 -9.1746Z" fill="url(#paint0_linear_2987_32842)" fill-opacity="0.75"/>
<path d="M3.98749 -9.1746C5.82979 -10.3161 8.17848 -10.2703 9.97402 -9.05776L36.2021 8.65393C37.2914 9.38958 37.2596 10.9923 36.1419 11.6848L15.9847 24.1746C14.1424 25.3161 11.7937 25.2703 9.9982 24.0578L-11.6062 9.4684C-14.8743 7.26144 -14.7788 2.45339 -11.4256 0.375674L3.98749 -9.1746Z" fill="url(#paint1_linear_2987_32842)" fill-opacity="0.75"/>
<path fill-rule="evenodd" clip-rule="evenodd" d="M-13.9833 26.1416C-14.1356 28.023 -13.2412 29.3017 -11.5 30.5L9.9964 46.0398C11.792 47.2754 14.1406 47.3222 15.9829 46.1588L36.1401 33.4307C36.6485 33.1097 36.9323 32.5967 36.988 32.0623C37.0012 31.9359 37.0016 31.8082 36.9892 31.6817C36.9801 31.5883 36.964 10.2826 36.9409 10.1913C36.8313 10.627 36.5636 11.0281 36.1397 11.2958L15.9825 24.024C14.1402 25.1873 11.7916 25.1406 9.99601 23.9049L-11.6084 9.03709C-13.0658 8.03414 -13.8543 27.717 -13.9833 26.1416Z" fill="#F14612"/>
<path d="M36.9409 10.1913C36.964 10.2826 36.9801 31.5883 36.9892 31.6817C36.9891 31.4621 36.9885 9.98293 36.988 9.80856L36.9409 10.1913Z" fill="#F14612"/>
<path d="M22.5 19.9998L28 16.5V38.6889L22.5 42V19.9998Z" fill="#F3F4F6"/>
<path d="M3.5 19.5L-2 15.5V37.5L3.5 41.5V19.5Z" fill="#D7D9DD"/>
<path d="M-1 3.39142L4.41134 0L28 16.6086L22.5887 20L-1 3.39142Z" fill="url(#paint2_linear_2987_32842)"/>
<path d="M28 3L22.5 -0.5L-2 15.5L3.5 19.5L28 3Z" fill="url(#paint3_linear_2987_32842)"/>
<path fill-rule="evenodd" clip-rule="evenodd" d="M16 7.66139L20.7828 4.61949C23.543 2.86396 27 5.04843 27 8.54812V9.52806C27 10.5986 26.573 11.4973 25.9299 12.1032L20.0486 16L16 7.66139ZM21.6528 11.9642C21.6401 8.76051 18.7287 6.66675 16.1195 7.70549L21.6528 11.9642Z" fill="url(#paint4_linear_2987_32842)"/>
<path fill-rule="evenodd" clip-rule="evenodd" d="M21.9999 12.0511L22 12.0699L22 12.9468C22 15.4075 18.9265 16.8538 16.6802 15.4503L10 11.2764L15.2176 8.55437C15.4621 8.42682 15.7116 8.32249 15.9637 8.24017L21.9999 12.0511Z" fill="url(#paint5_linear_2987_32842)"/>
<path d="M0 4.28712L5.65467 1L16 7.71288L10.3453 11L0 4.28712Z" fill="url(#paint6_linear_2987_32842)"/>
<path d="M5 0.35047L10.7174 -3L16 7.64954L10.2826 11L5 0.35047Z" fill="url(#paint7_linear_2987_32842)"/>
</g>
</g>
<defs>
<linearGradient id="paint0_linear_2987_32842" x1="25.2774" y1="14.7398" x2="-21.9112" y2="-19.5859" gradientUnits="userSpaceOnUse">
<stop stop-color="#FF794F"/>
<stop offset="1" stop-color="#FF0707"/>
</linearGradient>
<linearGradient id="paint1_linear_2987_32842" x1="25.2774" y1="14.7398" x2="-21.9112" y2="-19.5859" gradientUnits="userSpaceOnUse">
<stop stop-color="#FF794F"/>
<stop offset="1" stop-color="#FF0707"/>
</linearGradient>
<linearGradient id="paint2_linear_2987_32842" x1="19.5263" y1="15.468" x2="24.3086" y2="18.9614" gradientUnits="userSpaceOnUse">
<stop stop-color="#D9D9D9"/>
<stop offset="1" stop-color="white"/>
</linearGradient>
<linearGradient id="paint3_linear_2987_32842" x1="-3.04735" y1="1.5948" x2="2.01808" y2="18.6318" gradientUnits="userSpaceOnUse">
<stop stop-color="#D9D9D9"/>
<stop offset="1" stop-color="white"/>
</linearGradient>
<linearGradient id="paint4_linear_2987_32842" x1="24.4027" y1="13.1932" x2="21.4544" y2="8.09803" gradientUnits="userSpaceOnUse">
<stop stop-color="#C4C4C4"/>
<stop offset="1" stop-color="white"/>
</linearGradient>
<linearGradient id="paint5_linear_2987_32842" x1="15.4817" y1="9.33239" x2="17.9253" y2="17.4902" gradientUnits="userSpaceOnUse">
<stop stop-color="#D9D9D9"/>
<stop offset="1" stop-color="white"/>
</linearGradient>
<linearGradient id="paint6_linear_2987_32842" x1="12.6668" y1="9.32933" x2="0.755769" y2="2.02314" gradientUnits="userSpaceOnUse">
<stop stop-color="#D9D9D9"/>
<stop offset="1" stop-color="white"/>
</linearGradient>
<linearGradient id="paint7_linear_2987_32842" x1="4.09414" y1="-3" x2="11.3481" y2="10.39" gradientUnits="userSpaceOnUse">
<stop stop-color="#D9D9D9"/>
<stop offset="1" stop-color="white"/>
</linearGradient>
<clipPath id="clip0_2987_32842">
<rect width="48" height="48" fill="white"/>
</clipPath>
</defs>
</svg>
