<svg width="49" height="48" viewBox="0 0 49 48" fill="none" xmlns="http://www.w3.org/2000/svg">
<g clip-path="url(#clip0_2987_32873)">
<rect x="0.25" width="48" height="48" rx="15" fill="#F6F6F5"/>
<path d="M11.0116 -12.5481C12.4577 -13.454 14.3012 -13.4176 15.7106 -12.4553L36.2978 1.60115C37.1529 2.18499 37.1279 3.45692 36.2506 4.00657L20.4286 13.9188C18.9825 14.8247 12.4221 46.2884 11.0127 45.3261L-5.94531 33.7475L-5.94531 -2.59004L11.0116 -12.5481Z" fill="url(#paint0_linear_2987_32873)" fill-opacity="0.75"/>
<path d="M11.0116 -12.5481C12.4577 -13.454 14.3012 -13.4176 15.7106 -12.4553L36.2978 1.60115C37.1529 2.18499 37.1279 3.45692 36.2506 4.00657L20.4286 13.9188C18.9825 14.8247 12.4221 46.2884 11.0127 45.3261L-5.94531 33.7475L-5.94531 -2.59004L11.0116 -12.5481Z" fill="#D7D6D6"/>
<path d="M11.0116 -12.5481C12.4577 -13.454 14.3012 -13.4176 15.7106 -12.4553L36.2978 1.60115C37.1529 2.18499 37.1279 3.45692 36.2506 4.00657L20.4286 13.9188C18.9825 14.8247 12.4221 46.2884 11.0127 45.3261L-5.94531 33.7475L-5.94531 -2.59004L11.0116 -12.5481Z" fill="url(#paint1_linear_2987_32873)" fill-opacity="0.75"/>
<path d="M11.0116 -12.5481C12.4577 -13.454 14.3012 -13.4176 15.7106 -12.4553L36.2978 1.60115C37.1529 2.18499 37.1279 3.45692 36.2506 4.00657L20.4286 13.9188C18.9825 14.8247 12.4221 46.2884 11.0127 45.3261L-5.94531 33.7475L-5.94531 -2.59004L11.0116 -12.5481Z" fill="url(#paint2_linear_2987_32873)" fill-opacity="0.75"/>
<path d="M11.0116 -12.5481C12.4577 -13.454 14.3012 -13.4176 15.7106 -12.4553L36.2978 1.60115C37.1529 2.18499 37.1279 3.45692 36.2506 4.00657L20.4286 13.9188C18.9825 14.8247 12.4221 46.2884 11.0127 45.3261L-5.94531 33.7475L-5.94531 -2.59004L11.0116 -12.5481Z" fill="#D7D6D6"/>
<path d="M11.0116 -12.5481C12.4577 -13.454 14.3012 -13.4176 15.7106 -12.4553L36.2978 1.60115C37.1529 2.18499 37.1279 3.45692 36.2506 4.00657L20.4286 13.9188C18.9825 14.8247 12.4221 46.2884 11.0127 45.3261L-5.94531 33.7475L-5.94531 -2.59004L11.0116 -12.5481Z" fill="url(#paint3_linear_2987_32873)" fill-opacity="0.75"/>
<path d="M9.18652 21.133C9.18652 17.9012 11.4554 13.9713 14.2543 12.3554L32.3198 1.92526C35.1186 0.309348 37.3875 1.6193 37.3875 4.85112L37.3875 25.7114C37.3875 28.9432 35.1186 32.8731 32.3198 34.489L14.2543 44.9191C11.4554 46.535 9.18652 45.2251 9.18652 41.9932L9.18652 21.133Z" fill="#C4C4C4"/>
<path d="M9.18652 21.133C9.18652 17.9012 11.4554 13.9713 14.2543 12.3554L32.3198 1.92526C35.1186 0.309348 37.3875 1.6193 37.3875 4.85112L37.3875 25.7114C37.3875 28.9432 35.1186 32.8731 32.3198 34.489L14.2543 44.9191C11.4554 46.535 9.18652 45.2251 9.18652 41.9932L9.18652 21.133Z" fill="#EAEAEA"/>
<path d="M9.18652 21.133C9.18652 17.9012 11.4554 13.9713 14.2543 12.3554L32.3198 1.92526C35.1186 0.309348 37.3875 1.6193 37.3875 4.85112L37.3875 25.7114C37.3875 28.9432 35.1186 32.8731 32.3198 34.489L14.2543 44.9191C11.4554 46.535 9.18652 45.2251 9.18652 41.9932L9.18652 21.133Z" fill="url(#paint4_linear_2987_32873)" fill-opacity="0.6"/>
<path d="M12.9388 19.4212C12.9388 18.2393 13.7685 16.8022 14.792 16.2113L31.4975 6.56635C32.5211 5.97542 33.3508 6.45446 33.3508 7.63633L33.3508 26.9262C33.3508 28.108 32.5211 29.5452 31.4975 30.1361L14.792 39.781C13.7685 40.372 12.9388 39.8929 12.9388 38.711L12.9388 19.4212Z" stroke="#F3F4F6" stroke-width="2"/>
<path d="M23.1447 16.9378C20.1631 18.6592 17.7461 22.8456 17.7461 26.2884C17.7461 29.1501 19.416 30.5973 21.692 30.0157C21.8829 29.967 22.0781 29.9039 22.277 29.8262L22.5351 29.718L24.9145 28.7203L26.2148 26.2381L27.8113 23.6135L29.0073 21.619L28.6887 20.026C28.636 19.7878 28.4643 19.0206 28.4379 18.8836L28.379 18.6173C28.3311 18.4264 28.2733 18.2459 28.2061 18.0761C27.4422 16.1459 25.4643 15.5986 23.1447 16.9378Z" fill="white"/>
<path d="M23.1447 16.9378C20.1631 18.6592 17.7461 22.8456 17.7461 26.2884C17.7461 29.1501 19.416 30.5973 21.692 30.0157C21.8829 29.967 22.0781 29.9039 22.277 29.8262L22.5351 29.718L24.9145 28.7203L26.2148 26.2381L27.8113 23.6135L29.0073 21.619L28.6887 20.026C28.636 19.7878 28.4643 19.0206 28.4379 18.8836L28.379 18.6173C28.3311 18.4264 28.2733 18.2459 28.2061 18.0761C27.4422 16.1459 25.4643 15.5986 23.1447 16.9378Z" fill="white"/>
<path d="M23.1447 16.9378C20.1631 18.6592 17.7461 22.8456 17.7461 26.2884C17.7461 29.1501 19.416 30.5973 21.692 30.0157C21.8829 29.967 22.0781 29.9039 22.277 29.8262L22.5351 29.718L24.9145 28.7203L26.2148 26.2381L27.8113 23.6135L29.0073 21.619L28.6887 20.026C28.636 19.7878 28.4643 19.0206 28.4379 18.8836L28.379 18.6173C28.3311 18.4264 28.2733 18.2459 28.2061 18.0761C27.4422 16.1459 25.4643 15.5986 23.1447 16.9378Z" fill="url(#paint5_linear_2987_32873)" fill-opacity="0.75"/>
<circle cx="3.82453" cy="3.82453" r="3.82453" transform="matrix(0.866025 -0.5 2.20305e-08 1 22.5264 22.6172)" fill="#EFF6F9"/>
<path d="M31.9097 23.2517L34.8591 21.4922V25.374L31.9097 27.1335V23.2517Z" fill="#F3F4F6"/>
<path d="M31.9097 9.95484L34.8591 8.19531V12.0771L31.9097 13.8366V9.95484Z" fill="#F3F4F6"/>
</g>
<defs>
<linearGradient id="paint0_linear_2987_32873" x1="29.4451" y1="5.27391" x2="-29.9148" y2="-0.716413" gradientUnits="userSpaceOnUse">
<stop stop-color="#FFA877"/>
<stop offset="1" stop-color="#FF0707"/>
</linearGradient>
<linearGradient id="paint1_linear_2987_32873" x1="-0.868489" y1="10.2601" x2="13.7186" y2="-16.1648" gradientUnits="userSpaceOnUse">
<stop stop-color="#9EC1D5" stop-opacity="0.36"/>
<stop offset="0.208248" stop-color="#ACBECE" stop-opacity="0.68"/>
<stop offset="0.759549" stop-color="#ADC5D2" stop-opacity="0.93"/>
<stop offset="1" stop-color="#ABD6EE" stop-opacity="0.3"/>
</linearGradient>
<linearGradient id="paint2_linear_2987_32873" x1="29.4451" y1="5.27391" x2="-29.9148" y2="-0.716413" gradientUnits="userSpaceOnUse">
<stop stop-color="#FFA877"/>
<stop offset="1" stop-color="#FF0707"/>
</linearGradient>
<linearGradient id="paint3_linear_2987_32873" x1="-0.868489" y1="10.2601" x2="13.7186" y2="-16.1648" gradientUnits="userSpaceOnUse">
<stop stop-color="#9EC1D5" stop-opacity="0.36"/>
<stop offset="0.208248" stop-color="#ACBECE" stop-opacity="0.68"/>
<stop offset="0.759549" stop-color="#ADC5D2" stop-opacity="0.93"/>
<stop offset="1" stop-color="#ABD6EE" stop-opacity="0.3"/>
</linearGradient>
<linearGradient id="paint4_linear_2987_32873" x1="10.9911" y1="-2.41117" x2="61.1046" y2="52.7008" gradientUnits="userSpaceOnUse">
<stop stop-color="#9EC1D5" stop-opacity="0.36"/>
<stop offset="1" stop-color="#9FB1CB"/>
</linearGradient>
<linearGradient id="paint5_linear_2987_32873" x1="26.0424" y1="20.6713" x2="23.2879" y2="35.0309" gradientUnits="userSpaceOnUse">
<stop stop-color="#9EC1D5" stop-opacity="0.36"/>
<stop offset="1" stop-color="#8A9AB3"/>
</linearGradient>
<clipPath id="clip0_2987_32873">
<rect x="0.25" width="48" height="48" rx="15" fill="white"/>
</clipPath>
</defs>
</svg>
