<svg width="49" height="48" viewBox="0 0 49 48" fill="none" xmlns="http://www.w3.org/2000/svg">
<g clip-path="url(#clip0_2987_32857)">
<mask id="mask0_2987_32857" style="mask-type:alpha" maskUnits="userSpaceOnUse" x="0" y="0" width="49" height="48">
<rect x="0.875" width="48" height="48" rx="15" fill="#F4F4F2"/>
</mask>
<g mask="url(#mask0_2987_32857)">
<rect x="0.875" width="48" height="48" rx="15" fill="#F6F6F5"/>
<path d="M32.8397 9.54982C38.0446 19.6043 36.9204 30.4712 30.7109 33.8521C25.4202 36.5909 18.064 33.1669 12.7363 26.2185C11.6434 24.7931 10.6361 23.2142 9.75009 21.5027C4.54515 11.4482 5.49449 0.621705 11.8705 -2.67899C18.2465 -5.97968 27.6347 -0.504657 32.8397 9.54982Z" fill="#C4C4C4"/>
<path d="M32.8397 9.54982C38.0446 19.6043 36.9204 30.4712 30.7109 33.8521C25.4202 36.5909 18.064 33.1669 12.7363 26.2185C11.6434 24.7931 10.6361 23.2142 9.75009 21.5027C4.54515 11.4482 5.49449 0.621705 11.8705 -2.67899C18.2465 -5.97968 27.6347 -0.504657 32.8397 9.54982Z" fill="url(#paint0_linear_2987_32857)" fill-opacity="0.75"/>
<path d="M32.8397 9.54982C38.0446 19.6043 36.9204 30.4712 30.7109 33.8521C25.4202 36.5909 18.064 33.1669 12.7363 26.2185C11.6434 24.7931 10.6361 23.2142 9.75009 21.5027C4.54515 11.4482 5.49449 0.621705 11.8705 -2.67899C18.2465 -5.97968 27.6347 -0.504657 32.8397 9.54982Z" fill="#FFD076"/>
<path d="M30.7109 33.8521C25.4202 36.5909 18.064 33.1669 12.7363 26.2185L10.7515 26.5025L23.75 37.6026L30.7109 33.8521Z" fill="#C4C4C4"/>
<path d="M30.7109 33.8521C25.4202 36.5909 18.064 33.1669 12.7363 26.2185L10.7515 26.5025L23.75 37.6026L30.7109 33.8521Z" fill="url(#paint1_linear_2987_32857)" fill-opacity="0.75"/>
<path d="M30.7109 33.8521C25.4202 36.5909 18.064 33.1669 12.7363 26.2185L10.7515 26.5025L23.75 37.6026L30.7109 33.8521Z" fill="#FFD076"/>
<ellipse cx="14.7192" cy="19.1819" rx="13" ry="20.5" transform="rotate(-27.3694 14.7192 19.1819)" fill="#C4C4C4"/>
<ellipse cx="14.7192" cy="19.1819" rx="13" ry="20.5" transform="rotate(-27.3694 14.7192 19.1819)" fill="url(#paint2_linear_2987_32857)" fill-opacity="0.75"/>
<ellipse cx="14.2721" cy="19.4106" rx="9.5" ry="16.5" transform="rotate(-27.3694 14.2721 19.4106)" fill="white" fill-opacity="0.08"/>
<path fill-rule="evenodd" clip-rule="evenodd" d="M8.75 8L18.75 14.4996V17.4226L8.75 10.9231V8ZM8.75 13.1537L18.75 19.6533V22.5764L14.15 19.6533V29.5L11.85 27.7692L11.75 18.1533L8.75 16.0768V13.1537Z" fill="#F3F4F6"/>
</g>
</g>
<defs>
<linearGradient id="paint0_linear_2987_32857" x1="31.585" y1="20.085" x2="0.634314" y2="25.9165" gradientUnits="userSpaceOnUse">
<stop stop-color="#FFB649"/>
<stop offset="1" stop-color="#C07300"/>
</linearGradient>
<linearGradient id="paint1_linear_2987_32857" x1="31.585" y1="20.085" x2="0.634314" y2="25.9165" gradientUnits="userSpaceOnUse">
<stop stop-color="#FFB649"/>
<stop offset="1" stop-color="#C07300"/>
</linearGradient>
<linearGradient id="paint2_linear_2987_32857" x1="21.6872" y1="27.1819" x2="-8.4798" y2="18.1318" gradientUnits="userSpaceOnUse">
<stop stop-color="#FFB649"/>
<stop offset="1" stop-color="#C07300"/>
</linearGradient>
<clipPath id="clip0_2987_32857">
<rect width="48" height="48" fill="white" transform="translate(0.75)"/>
</clipPath>
</defs>
</svg>
