<svg width="28" height="29" viewBox="0 0 28 29" fill="none" xmlns="http://www.w3.org/2000/svg">
<circle cx="14" cy="14.4141" r="14" fill="#BEBEB6" fill-opacity="0.2"/>
<path fill-rule="evenodd" clip-rule="evenodd" d="M7.12291 9.72217L13.5232 14.993L14 15.3857L14.4768 14.993L20.8771 9.72217C20.9566 9.93778 21 10.1708 21 10.4141V17.4141C21 18.5186 20.1046 19.4141 19 19.4141H9C7.89543 19.4141 7 18.5186 7 17.4141V10.4141C7 10.1708 7.04341 9.93778 7.12291 9.72217ZM8.13332 8.61109C8.39552 8.48482 8.6895 8.41406 9 8.41406H19C19.3105 8.41406 19.6045 8.48482 19.8667 8.61109L14 13.4425L8.13332 8.61109Z" fill="#AAADB3"/>
</svg>
