<svg width="28" height="29" viewBox="0 0 28 29" fill="none" xmlns="http://www.w3.org/2000/svg">
<circle cx="14" cy="14.4141" r="14" fill="#BEBEB6" fill-opacity="0.2"/>
<path d="M11.288 17.1055C11.9094 17.7259 12.5653 18.2859 13.2557 18.7856C13.9461 19.2854 14.6365 19.6817 15.3269 19.9746C16.0173 20.2676 16.671 20.4141 17.288 20.4141C17.7066 20.4141 18.0971 20.3387 18.4595 20.1879C18.822 20.0371 19.1499 19.8002 19.4434 19.4771C19.616 19.2875 19.7519 19.0829 19.8511 18.8632C19.9504 18.6478 20 18.4302 20 18.2105C20 18.0468 19.9676 17.8917 19.9029 17.7452C19.8382 17.5945 19.7282 17.4652 19.5728 17.3575L17.5858 15.9488C17.4347 15.8454 17.2945 15.7679 17.165 15.7162C17.0356 15.6645 16.9126 15.6386 16.7961 15.6386C16.6494 15.6386 16.507 15.6795 16.3689 15.7614C16.2309 15.8389 16.0885 15.951 15.9417 16.0974L15.4822 16.5498C15.4175 16.6187 15.3355 16.6532 15.2362 16.6532C15.1845 16.6532 15.1348 16.6445 15.0874 16.6273C15.0442 16.6101 15.0076 16.595 14.9773 16.5821C14.7745 16.4744 14.5156 16.2891 14.2006 16.0263C13.8857 15.7592 13.5685 15.4663 13.2492 15.1475C12.9342 14.8287 12.6429 14.5121 12.3754 14.1976C12.1079 13.8831 11.9223 13.6268 11.8188 13.4286C11.8015 13.3941 11.7843 13.3554 11.767 13.3123C11.754 13.2649 11.7476 13.2175 11.7476 13.1701C11.7476 13.0753 11.7799 12.9956 11.8447 12.931L12.3042 12.4593C12.4466 12.3128 12.5588 12.1707 12.6408 12.0328C12.7228 11.8949 12.7638 11.7528 12.7638 11.6063C12.7638 11.49 12.7357 11.3672 12.6796 11.238C12.6278 11.1087 12.548 10.9687 12.4401 10.8179L11.0485 8.85994C10.9364 8.70485 10.8026 8.59285 10.6472 8.52392C10.4919 8.45068 10.3279 8.41406 10.1553 8.41406C9.7109 8.41406 9.2945 8.60146 8.90615 8.97626C8.59115 9.27782 8.3603 9.61169 8.21359 9.97788C8.0712 10.3397 8 10.7275 8 11.141C8 11.7614 8.14455 12.4141 8.43366 13.099C8.72276 13.7797 9.11543 14.4625 9.61165 15.1475C10.1079 15.8325 10.6667 16.4851 11.288 17.1055Z" fill="#AAADB3"/>
</svg>
